<svg xmlns="http://www.w3.org/2000/svg" viewBox="0 0 473.93 473.93">
  <circle cx="236.97" cy="236.97" r="236.97" fill="#ffc10e"/>
  <g fill="#ed3533">
    <path d="M182.13 109.97a42.5 42.5 0 00-35.15 18.43l-1.63 2.07-1.1-1.39a41.92 41.92 0 00-35.22-19.1c-24.37 0-42.04 17.68-42.04 42.03 0 35.96 65.1 88.97 69.85 92.79 2.24 2.14 5.18 3.32 8.29 3.32s6.05-1.18 8.29-3.33c4.76-3.84 70.75-57.68 70.75-92.78 0-24.36-17.68-42.04-42.04-42.04z"/>
    <path d="M366.7 109.97a42.5 42.5 0 00-35.16 18.43l-1.63 2.07-1.08-1.39a41.92 41.92 0 00-35.24-19.1c-24.36 0-42.04 17.68-42.04 42.03 0 35.96 65.1 88.97 69.86 92.79a11.92 11.92 0 008.28 3.32c3.11 0 6.05-1.18 8.3-3.33 4.75-3.84 70.74-57.68 70.74-92.78 0-24.36-17.68-42.04-42.03-42.04z"/>
  </g>
  <path fill="#333" d="M343.25 316.86c-59.28 60.33-154.66 59.85-213.44-.9-8.4-8.68-21.62 4.56-13.23 13.23a167.07 167.07 0 00239.9.9c8.46-8.6-4.76-21.84-13.23-13.23z"/>
</svg>
